<svg xmlns="http://www.w3.org/2000/svg" viewBox="0 0 30 30"><defs><style>.cls-1{opacity:0.86;}</style></defs><title>krom</title><g id="Layer_2" data-name="Layer 2"><g id="Layer_1-2" data-name="Layer 1"><path d="M15,.12,29.88,15,15,29.88.12,15,15,.12M15,0,0,15,15,30,30,15Z"/><path d="M15,2.67,27.33,15,15,27.33,2.67,15,15,2.67m0-.13L2.54,15,15,27.46,27.46,15Z"/><path d="M15,4.9,25.1,15,15,25.1,4.9,15,15,4.9m0-.12L4.78,15,15,25.22,25.22,15Z"/><g class="cls-1"><path d="M14.93,18.12l-.81-.52-1.78-3.45.67-.8A3.74,3.74,0,0,1,14.81,12v0H12.27v0a.92.92,0,0,1,.44.22.5.5,0,0,1,.19.35,1.14,1.14,0,0,1-.33.7L11.08,15V12.68l.5-.48-.08-.1-.54.52v2.57l-.26.3V12.58l.67-.63H9.12l.62.57v5l-.66.56h2.21l-.59-.52V16.1l1-1.18.11.21-.84,1v1.49l.61.74H9.27l.13.13h2.47l-.79-.92V16.22l.79-1,1.19,2.39-.63.47Zm-2.15-4,.85-.93a2.16,2.16,0,0,1,1.42-.83l-.06-.1a2.24,2.24,0,0,0-1.44.85l-.9,1,1.76,3.54,1,.7H12.65l.13.13h3.07l-1.37-.92Zm8.28-2.09.06-.11h-5.8l0,.05A8.58,8.58,0,0,1,16,13.49h.06a1.24,1.24,0,0,1,.3-.86,1.29,1.29,0,0,1,.9-.25,3.55,3.55,0,0,1,.46,0v.23h-.34a1.15,1.15,0,0,0-.79.22,1.24,1.24,0,0,0-.29.79h.13a1,1,0,0,1,.25-.69,1,1,0,0,1,.7-.2h.34v4.79l-.67.56h2.2l-.57-.52V12.38h.06l.43,0a1.24,1.24,0,0,1,.79.21,1.54,1.54,0,0,1,.4.77v.06l.05,0v0a4,4,0,0,1,.31-.77Zm-.92.94a.55.55,0,0,0-.31-.29,2,2,0,0,0-.66-.08h-.26v5l.65.74H17.25l.11.13h2.46l-.76-.9,0-4.84.23,0A1.65,1.65,0,0,1,20.14,13Zm1.18-.85,0,0a4.89,4.89,0,0,0-.69,1.39v0l.1.1,0-.05a5.68,5.68,0,0,1,.7-1.41Z"/></g></g></g></svg>